PathFileType	3	(X/Y/Z)	C:\Users\koon_\Desktop\
DataRate	CameraRate	NumFrames	NumMarkers	Units	OrigDataRate	OrigDataStartFrame	OrigNumFrames
100.0	100.0	7	27	mm	100.0	500	3999	
Frame#	Time	get:LFHD			get:RFHD			get:LBHD			get:RBHD			get:C7			get:T10			get:CLAV			get:STRN			get:RBAK			get:LSHO			get:LUPA			get:LELB			get:LFRA			get:LWRA			get:LWRB			get:LFIN			get:RSHO			get:RUPA			get:RELB			get:RFRA			get:RWRA			get:RWRB			get:RFIN			get:LASI			get:RASI			get:LPSI			get:RPSI			
		X1	Y1	Z1	X2	Y2	Z2	X3	Y3	Z3	X4	Y4	Z4	X5	Y5	Z5	X6	Y6	Z6	X7	Y7	Z7	X8	Y8	Z8	X9	Y9	Z9	X10	Y10	Z10	X11	Y11	Z11	X12	Y12	Z12	X13	Y13	Z13	X14	Y14	Z14	X15	Y15	Z15	X16	Y16	Z16	X17	Y17	Z17	X18	Y18	Z18	X19	Y19	Z19	X20	Y20	Z20	X21	Y21	Z21	X22	Y22	Z22	X23	Y23	Z23	X24	Y24	Z24	X25	Y25	Z25	X26	Y26	Z26	X27	Y27	Z27	
500	4.99	125.77042	1576.7555	-209.0547	84.310509	1563.7227	-58.332546	5.4702172	1558.7933	-238.33543	-44.902287	1556.7682	-119.16524	-30.05052	1374.4175	-200.95294	-72.346756	1146.9653	-218.35757	133.91896	1310.1526	-111.9573	154.33389	1121.1248	-82.274384	-88.705437	1326.8097	-112.93049	99.359314	1395.0479	-264.46805	210.46959	1404.4612	-314.84381	383.16757	1379.2068	-334.48618	471.94431	1465.8177	-303.20663	562.58929	1496.9875	-277.28366	583.72961	1447.6464	-320.71121	651.47955	1504.4229	-321.51547	5.985889	1411.5697	-60.355434	129.99629	1427.6576	38.209892	230.24706	1403.6014	89.619011	293.66196	1486.1067	57.601437	445.3075	1530.7396	65.096016	450.23605	1485.3282	120.26514	509.46732	1554.3242	114.90385	163.9502	935.39819	-182.99442	-52.669155	918.39185	-10.266335	-29.37426	971.27887	-279.68512	-110.76125	960.2691	-213.53598
501	5	126.77695	1576.8655	-208.64973	85.157707	1563.5094	-57.943317	6.2127647	1559.3828	-239.66309	-43.927784	1556.3618	-118.83054	-28.513086	1374.6549	-200.88029	-71.608849	1147.4821	-218.09247	135.28168	1310.0288	-111.84962	155.20619	1120.9628	-82.00502	-87.361366	1327.3235	-112.77137	101.03892	1395.0813	-263.87344	212.02022	1404.7684	-313.77502	384.79736	1380.0953	-333.49673	473.80679	1466.371	-302.0098	564.73462	1496.9757	-276.1246	585.49017	1447.9039	-320.08994	652.92279	1504.7916	-321.29453	7.5667238	1411.9905	-60.509701	131.72159	1428.4225	37.87199	232.03812	1404.448	88.649857	295.64301	1486.8439	57.150394	447.5838	1530.866	65.279518	451.99152	1485.1768	120.0611	511.43195	1553.917	115.73537	164.2292	935.40045	-182.70383	-52.427204	918.625	-10.158836	-29.133837	971.44952	-279.33585	-110.50343	960.46869	-213.24838
502	5.01	127.69386	1576.9652	-208.28101	86.126991	1563.2438	-57.54137	7.608593	1559.0458	-239.03027	-43.014816	1555.9509	-118.63736	-26.947491	1374.9188	-200.73418	-70.881065	1148.0089	-217.85303	136.6232	1309.8491	-111.63811	155.99889	1120.7339	-81.701996	-85.959091	1327.8672	-112.55818	102.71025	1395.0892	-263.19449	213.62016	1405.0332	-313.02859	386.4407	1380.9169	-332.48511	475.69678	1466.7704	-300.75195	566.82843	1496.8019	-274.85059	587.22107	1448.1433	-319.33588	654.38202	1505.0189	-320.87601	9.1363688	1412.4821	-60.653225	133.45973	1429.1738	37.21384	233.8887	1405.1842	87.74437	297.62332	1487.506	56.560448	449.88718	1530.8668	65.214958	453.67987	1485.1506	119.01883	513.40253	1553.5251	116.43008	164.40924	935.41449	-182.3878	-52.238796	918.86505	-9.9501123	-28.937937	971.55988	-278.90933	-110.31539	960.66119	-212.88229
503	5.02	128.64326	1577.0916	-207.77263	86.99147	1562.9613	-57.053101	8.1256371	1559.0884	-238.96588	-42.059715	1555.4902	-118.27579	-25.42177	1375.2113	-200.64716	-70.239738	1148.4451	-217.37958	138.04187	1309.6204	-111.64103	156.80553	1120.4364	-81.499168	-84.55217	1328.3962	-112.14921	104.44559	1395.132	-262.59543	215.20357	1405.2097	-312.13074	388.06137	1381.5907	-331.55347	477.59442	1467.2755	-299.80676	568.88287	1496.6698	-273.56012	588.97607	1448.2192	-318.46375	655.88287	1505.0875	-320.2558	10.6685	1412.9644	-60.876457	135.20317	1430.0084	36.151058	235.69373	1405.7982	86.892708	299.68616	1488.0068	55.914536	452.23267	1530.7644	65.038826	455.59268	1484.9941	118.71005	515.36237	1553.1935	116.82888	164.57654	935.45691	-182.149	-52.001152	919.07312	-9.7716551	-28.801067	971.80591	-278.59103	-110.11173	960.94666	-212.71692
504	5.03	129.53172	1577.2233	-207.29253	87.890526	1562.6857	-56.638958	9.3316126	1559.1302	-238.54543	-41.15107	1555.0085	-117.9319	-23.964073	1375.5332	-200.57397	-69.659035	1148.9697	-217.11267	139.33597	1309.4102	-111.57774	157.52531	1120.1409	-81.309601	-83.171371	1328.9487	-111.88535	106.13403	1395.2389	-262.06271	216.65202	1405.4379	-311.13403	389.63632	1382.0222	-330.51462	479.48376	1467.4022	-298.48206	570.80646	1496.5013	-272.32999	590.70374	1448.1617	-317.47626	657.51697	1504.9011	-319.58197	12.411026	1413.4314	-60.881866	136.96144	1430.6467	36.088882	237.55734	1406.3524	86.244034	301.81232	1488.3506	55.188313	454.50595	1530.5967	64.675003	457.61368	1484.8424	118.52874	517.28766	1552.921	116.85699	164.64864	935.4975	-181.92148	-51.7957	919.24121	-9.5329008	-28.743008	972.05646	-278.24091	-109.95015	961.21991	-212.34995
505	5.04	130.47626	1577.4557	-206.77342	88.736931	1562.4862	-56.306709	10.119804	1558.9579	-238.13489	-40.196362	1554.6145	-117.56841	-22.532578	1375.842	-200.24162	-69.114685	1149.505	-216.67224	140.61121	1309.2125	-111.34999	158.24454	1119.8927	-81.038757	-81.749176	1329.5496	-111.59953	107.82964	1395.397	-262.32016	218.23799	1405.5029	-310.28812	391.25308	1382.228	-329.59915	481.28729	1467.4016	-297.31781	572.67828	1496.2743	-271.18002	592.48157	1447.9353	-316.36057	659.14996	1504.525	-318.7139	14.048372	1413.9684	-60.93174	138.80237	1431.2395	35.633339	239.45624	1406.8552	85.898865	303.97339	1488.5114	54.659752	456.71286	1530.4017	64.179886	459.67218	1484.7067	118.0004	519.31458	1552.7458	116.57325	164.70444	935.52307	-181.67969	-51.615208	919.44592	-9.2312841	-28.676685	972.31891	-277.95078	-109.86458	961.45209	-211.86819
506	5.05	131.40305	1577.7422	-206.34882	89.6427	1562.3026	-55.930683	11.244531	1559.1228	-237.78673	-39.271389	1554.254	-117.27643	-21.111803	1376.2784	-199.93344	-68.490547	1150.1428	-216.46718	141.82164	1309.0219	-111.04495	158.85513	1119.5901	-80.863129	-80.337326	1330.186	-111.24821	109.48924	1395.5663	-261.78809	219.86824	1405.5234	-309.4364	392.87119	1382.1633	-328.64813	483.00345	1467.1929	-296.18292	574.49066	1495.9232	-270.05292	594.24445	1447.5615	-315.12286	660.95502	1503.9739	-317.71866	15.808901	1414.5039	-60.938202	140.81909	1431.7708	34.626511	241.44969	1407.1365	85.814766	306.06891	1488.4758	54.141289	458.84558	1530.1692	63.62442	461.85608	1484.5344	117.47304	521.42297	1552.5636	116.01488	164.70653	935.5824	-181.50017	-51.472263	919.68073	-8.9895325	-28.69582	972.60718	-277.59589	-109.77985	961.78162	-211.55563
